#!OML:ASF X:\für Bonn\!DataBase\2005_08_10_Bjorn_Final\c3d\bjorn.ASF
:FULLY-SPECIFIED
:DEGREES
264
root 13.7853 17.6296 18.774 -347.241 -223.52 -347.484
lowerback -2.76893 2.40386 1.70314
upperback 6.44409 3.50934 -1.89273
thorax 8.55199 2.01336 -2.57401
lowerneck -2.46311 1.3996 5.69103
upperneck 6.17987 1.70259 -0.0943191
head 2.43935 1.01596 -0.957996
rclavicle 1.07344e-014 1.27222e-014
rhumerus -42.1003 5.25185 -100.848
rradius 84.5053
rwrist 12.918
rhand -29.6925 30.5965
rfingers 7.12502
rthumb -3.02052 0.638189
lclavicle 1.07344e-014 1.27222e-014
lhumerus -45.1092 -23.7586 92.6841
lradius 88.1186
lwrist -4.22869
lhand -44.5993 -26.3067
lfingers 7.12502
lthumb -17.398 2.93465
rfemur 0.003335 -11.1182 6.92496
rtibia 69.6856
rfoot 8.79086 12.4874
rtoes -33.6141
lfemur -21.1327 -2.29687 -30.9532
ltibia 48.3328
lfoot -25.5061 6.05185
ltoes 12.0618
265
root 14.0162 17.5651 18.671 -347.85 -222.789 -348.324
lowerback -2.70633 2.23466 1.18242
upperback 6.63942 3.35819 -2.06621
thorax 8.69745 1.92452 -2.48004
lowerneck -2.65908 1.49408 5.59051
upperneck 5.82458 1.81123 -0.0170579
head 2.35775 1.05879 -0.91165
rclavicle -5.96354e-014 8.42847e-014
rhumerus -42.3586 4.20326 -100.167
rradius 83.3003
rwrist 12.4872
rhand -29.9587 30.1369
rfingers 7.12502
rthumb -3.27753 0.182311
lclavicle -5.96354e-014 8.42847e-014
lhumerus -43.3243 -23.8733 92.5438
lradius 88.5889
lwrist -4.02265
lhand -44.232 -25.8183
lfingers 7.12502
lthumb -17.0446 3.45397
rfemur -1.76473 -11.2892 5.90618
rtibia 71.6791
rfoot 7.86179 12.5515
rtoes -34.2254
lfemur -20.4833 -2.8637 -31.2854
ltibia 49.0292
lfoot -26.5456 6.03172
ltoes 11.5657
266
root 14.2464 17.5172 18.5637 -348.435 -222.036 -349.084
lowerback -2.55979 2.05762 0.65676
upperback 6.81338 3.19092 -2.1759
thorax 8.76732 1.82307 -2.32145
lowerneck -2.67937 1.58668 5.45403
upperneck 5.35846 1.93531 0.00586928
head 2.20832 1.10485 -0.877032
rclavicle 1.47101e-014 3.02153e-014
rhumerus -42.7701 3.28618 -99.4705
rradius 82.2976
rwrist 11.6733
rhand -29.8304 29.3071
rfingers 7.12502
rthumb -3.15367 -0.649314
lclavicle 1.47101e-014 3.02153e-014
lhumerus -41.5615 -23.9871 92.5023
lradius 89.0121
lwrist -3.95147
lhand -43.9448 -25.0641
lfingers 7.12502
lthumb -16.7681 4.23183
rfemur -3.49897 -11.3571 5.07842
rtibia 73.4447
rfoot 6.85326 12.5732
rtoes -34.8379
lfemur -19.6373 -3.37816 -31.5418
ltibia 49.4542
lfoot -27.4457 5.95856
ltoes 10.8532
267
root 14.4728 17.4874 18.4531 -348.903 -221.262 -349.664
lowerback -2.35231 1.88691 0.280225
upperback 6.96539 3.01652 -2.25589
thorax 8.78647 1.72572 -2.21781
lowerneck -2.64637 1.66462 5.33977
upperneck 4.9195 2.04454 0.0119109
head 2.05916 1.14536 -0.852702
rclavicle 1.19271e-014 -3.65764e-014
rhumerus -43.2892 2.46825 -98.8509
rradius 81.46
rwrist 10.8053
rhand -29.6731 28.429
rfingers 7.12502
rthumb -3.00177 -1.52964
lclavicle 1.19271e-014 -3.65764e-014
lhumerus -39.8835 -24.1297 92.4925
lradius 89.4651
lwrist -3.91623
lhand -43.772 -24.2689
lfingers 7.12502
lthumb -16.6017 5.04106
rfemur -5.19234 -11.2626 4.52075
rtibia 74.9565
rfoot 5.93258 12.6062
rtoes -35.2811
lfemur -18.6422 -3.91999 -31.6447
ltibia 49.5978
lfoot -28.1878 5.97928
ltoes 9.92302
268
root 14.6934 17.468 18.3419 -349.28 -220.431 -350.084
lowerback -2.07348 1.70222 0.0320579
upperback 7.0989 2.80455 -2.27026
thorax 8.74624 1.61458 -2.1223
lowerneck -2.61336 1.73676 5.12751
upperneck 4.56637 2.14893 0.052328
head 1.93637 1.1852 -0.800974
rclavicle 3.81667e-014 -3.02153e-014
rhumerus -43.9367 1.8292 -98.2286
rradius 80.7297
rwrist 10.1285
rhand -29.7427 27.7438
rfingers 7.12502
rthumb -3.06896 -2.21386
lclavicle 3.81667e-014 -3.02153e-014
lhumerus -38.3078 -24.2109 92.5991
lradius 89.8969
lwrist -3.95931
lhand -43.7777 -23.4956
lfingers 7.12502
lthumb -16.6072 5.8139
rfemur -6.82476 -11.1869 4.1242
rtibia 76.2287
rfoot 5.07969 12.6391
rtoes -35.4106
lfemur -17.5116 -4.53688 -31.6118
ltibia 49.4879
lfoot -28.7902 6.02722
ltoes 8.81798
269
root 14.9092 17.4604 18.2271 -349.57 -219.598 -350.413
lowerback -1.8037 1.51568 -0.100673
upperback 7.22303 2.58037 -2.28401
thorax 8.70783 1.50474 -2.0904
lowerneck -2.6201 1.81004 4.86239
upperneck 4.31555 2.25166 0.188131
head 1.8517 1.22895 -0.710057
rclavicle 1.11319e-014 -2.54444e-014
rhumerus -44.6807 1.31199 -97.6416
rradius 80.0911
rwrist 9.6739
rhand -29.8114 27.3847
rfingers 7.12502
rthumb -3.13531 -2.57203
lclavicle 1.11319e-014 -2.54444e-014
lhumerus -36.8248 -24.2516 92.7473
lradius 90.3301
lwrist -4.04756
lhand -43.9528 -22.8955
lfingers 7.12502
lthumb -16.7758 6.39971
rfemur -8.52399 -11.0671 3.83614
rtibia 77.3093
rfoot 4.31556 12.6298
rtoes -35.2136
lfemur -16.3003 -5.21477 -31.5029
ltibia 49.1531
lfoot -29.3109 5.95037
ltoes 8.30182
270
root 15.1237 17.4653 18.1068 -349.764 -218.747 -350.634
lowerback -1.58746 1.314 -0.153405
upperback 7.37056 2.32808 -2.25154
thorax 8.72756 1.38459 -2.05399
lowerneck -2.81371 1.91279 4.59139
upperneck 4.22055 2.38307 0.302052
head 1.85184 1.28975 -0.623228
rclavicle -2.54444e-014 7.4743e-014
rhumerus -45.4427 0.942906 -97.0537
rradius 79.5455
rwrist 9.41608
rhand -29.7956 27.0109
rfingers 7.12502
rthumb -3.12006 -2.94606
lclavicle -2.54444e-014 7.4743e-014
lhumerus -35.3765 -24.2047 92.9622
lradius 90.5604
lwrist -4.16068
lhand -44.3482 -22.9639
lfingers 7.12502
lthumb -17.1564 6.29866
rfemur -10.28 -10.8894 3.6886
rtibia 78.2015
rfoot 3.72688 12.5656
rtoes -34.2711
lfemur -15.0035 -5.92931 -31.2955
ltibia 48.6222
lfoot -29.7845 5.77516
ltoes 8.06316
271
root 15.3365 17.4801 17.9812 -349.89 -217.922 -350.738
lowerback -1.34469 1.12364 -0.0895543
upperback 7.47901 2.07776 -2.20792
thorax 8.69327 1.27118 -2.07092
lowerneck -2.98538 2.00842 4.40907
upperneck 4.23117 2.50631 0.335927
head 1.88487 1.34845 -0.576842
rclavicle -4.77083e-014 -3.18055e-015
rhumerus -46.2504 0.636616 -96.5299
rradius 79.0366
rwrist 9.24421
rhand -29.6574 26.7878
rfingers 7.12502
rthumb -2.98659 -3.17101
lclavicle -4.77083e-014 -3.18055e-015
lhumerus -34.161 -24.0753 93.2763
lradius 90.668
lwrist -4.33086
lhand -44.8477 -23.7067
lfingers 7.12502
lthumb -17.6371 5.51334
rfemur -12.056 -10.6987 3.65857
rtibia 78.9319
rfoot 3.10353 12.5841
rtoes -33.3267
lfemur -13.6137 -6.61203 -30.981
ltibia 47.9077
lfoot -30.1742 5.38805
ltoes 8.28
272
root 15.5494 17.5051 17.8523 -349.96 -217.125 -350.908
lowerback -1.18552 0.919802 -0.152026
upperback 7.51532 1.80518 -2.13798
thorax 8.6229 1.13224 -1.98906
lowerneck -3.07835 2.13024 4.27082
upperneck 4.27868 2.67086 0.27597
head 1.9191 1.4267 -0.566805
rclavicle -4.45278e-014 -2.54444e-014
rhumerus -47.1041 0.530111 -96.0402
rradius 78.5778
rwrist 9.12817
rhand -29.4492 26.5853
rfingers 7.12502
rthumb -2.78554 -3.37626
lclavicle -4.45278e-014 -2.54444e-014
lhumerus -33.1031 -23.8362 93.7613
lradius 90.795
lwrist -4.42582
lhand -45.2636 -24.4534
lfingers 7.12502
lthumb -18.0373 4.73027
rfemur -13.9605 -10.6011 3.61029
rtibia 79.5128
rfoot 2.40092 12.8032
rtoes -32.8718
lfemur -12.2457 -7.28226 -30.7076
ltibia 47.0087
lfoot -30.4658 4.93527
ltoes 8.48412
273
root 15.7638 17.542 17.7214 -349.946 -216.36 -351.225
lowerback -1.18157 0.680571 -0.405199
upperback 7.49279 1.49252 -2.10758
thorax 8.57613 0.958459 -1.84256
lowerneck -3.20893 2.30583 4.23524
upperneck 4.3702 2.90287 0.177201
head 1.9787 1.54025 -0.583832
rclavicle -2.38542e-014 4.29375e-014
rhumerus -47.9123 0.618092 -95.6928
rradius 78.153
rwrist 8.94202
rhand -29.1891 26.4728
rfingers 7.12502
rthumb -2.53437 -3.49185
lclavicle -2.38542e-014 4.29375e-014
lhumerus -32.0613 -23.4679 94.2385
lradius 91.1012
lwrist -4.39002
lhand -45.3592 -24.6573
lfingers 7.12502
lthumb -18.1292 4.51783
rfemur -16.1049 -10.5834 3.50555
rtibia 79.9569
rfoot 1.61867 13.1995
rtoes -32.6642
lfemur -11.0065 -7.84846 -30.5025
ltibia 45.927
lfoot -30.4259 4.3346
ltoes 8.48743
274
root 15.9786 17.5928 17.5843 -349.863 -215.635 -351.571
lowerback -1.31004 0.421889 -0.717229
upperback 7.49354 1.16083 -2.0813
thorax 8.63515 0.771592 -1.66744
lowerneck -3.46098 2.52207 4.36004
upperneck 4.47946 3.18143 -0.0956305
head 2.07494 1.67469 -0.680315
rclavicle -6.36111e-014 -2.38542e-014
rhumerus -48.6072 0.861227 -95.439
rradius 77.7606
rwrist 8.74423
rhand -29.0846 26.5045
rfingers 7.12502
rthumb -2.43341 -3.46141
lclavicle -6.36111e-014 -2.38542e-014
lhumerus -31.0393 -23.1652 94.6758
lradius 91.6296
lwrist -4.22767
lhand -45.3385 -24.4505
lfingers 7.12502
lthumb -18.1093 4.72645
rfemur -18.3352 -10.5421 3.43075
rtibia 80.1771
rfoot 0.739275 13.6478
rtoes -32.6872
lfemur -9.78988 -8.2926 -30.2823
ltibia 44.6702
lfoot -30.1217 3.51368
ltoes 8.40393
275
root 16.1935 17.6584 17.4403 -349.701 -214.886 -351.841
lowerback -1.4726 0.15291 -0.971192
upperback 7.50354 0.813131 -2.04901
thorax 8.72916 0.580613 -1.52096
lowerneck -3.72671 2.74855 4.55123
upperneck 4.53812 3.47012 -0.37595
head 2.16094 1.81393 -0.789997
rclavicle -3.18055e-015 4.77083e-015
rhumerus -49.2077 1.13237 -95.2546
rradius 77.4085
rwrist 8.5589
rhand -29.2312 26.6791
rfingers 7.12502
rthumb -2.57501 -3.28512
lclavicle -3.18055e-015 4.77083e-015
lhumerus -30.0839 -23.0313 95.0421
lradius 92.3112
lwrist -3.9555
lhand -45.2525 -23.9172
lfingers 7.12502
lthumb -18.0266 5.26737
rfemur -20.5462 -10.4491 3.50146
rtibia 80.1387
rfoot -0.269238 13.9715
rtoes -33.3484
lfemur -8.55167 -8.64372 -29.9458
ltibia 43.2687
lfoot -29.6507 2.57922
ltoes 8.27101
